<?xml version="1.0" encoding="UTF-8" standalone="no"?>
<!DOCTYPE svg PUBLIC "-//W3C//DTD SVG 1.1//EN" "http://www.w3.org/Graphics/SVG/1.1/DTD/svg11.dtd">
<svg width="100%" height="100%" viewBox="0 0 1042 249" version="1.1" xmlns="http://www.w3.org/2000/svg" xmlns:xlink="http://www.w3.org/1999/xlink" xml:space="preserve" xmlns:serif="http://www.serif.com/" style="fill-rule:evenodd;clip-rule:evenodd;stroke-linejoin:round;stroke-miterlimit:2;">
    <g transform="matrix(1,0,0,1,-58.800788,-69.681534)">
        <g transform="matrix(0.951425,0,0,0.951425,12.958225,8.183898)">
            <g transform="matrix(1,0,0,1,-3,0)">
                <path d="M120.805,266.447L107.52,255.942C106.226,254.918 105.35,253.457 105.056,251.834L103.229,241.733L62.23,208.612C60.637,207.325 59.712,205.388 59.712,203.342L59.712,146.695C59.712,145.413 60.076,144.158 60.761,143.074L66.221,134.44L51.755,101.517C50.896,99.562 51.009,97.316 52.061,95.457L67.543,68.079C69.215,65.121 72.82,63.859 75.972,65.129L120.284,82.983C127.085,81.186 147.635,76.052 160.694,75.966C173.757,75.879 194.133,81.39 201.039,83.376L245.252,65.15C248.434,63.838 252.094,65.121 253.761,68.132L268.92,95.51C269.943,97.358 270.045,99.577 269.197,101.512L255.015,133.869L260.141,142.359C260.779,143.416 261.116,144.627 261.116,145.861L261.116,203.342C261.116,205.388 260.191,207.325 258.6,208.611L217.806,241.575L216.823,250.103C216.628,251.789 215.807,253.341 214.523,254.451L199.859,267.13L199.082,273.34C199.029,273.767 198.829,274.162 198.517,274.457L180.537,291.491C180.192,291.818 179.735,292 179.261,292L141.769,292C141.277,292 140.804,291.804 140.456,291.456L122.41,273.41C122.143,273.143 121.964,272.801 121.896,272.43L120.805,266.447Z" style="fill:rgb(19,40,78);"/>
            </g>
            <g transform="matrix(0.433816,0,0,0.433816,-28.469773,8.786366)">
                <path d="M424.317,591.008C428.33,589.684 428.446,589.347 432.466,590.604C432.763,590.697 441.675,593.337 442.476,593.574C447.964,595.2 447.911,595.316 453.437,596.776C453.924,596.905 453.856,597.059 459.477,598.587C463.462,599.671 463.402,599.831 467.402,600.883C488.426,606.41 499.486,610.694 505.508,610.115C506.628,610.007 506.657,609.819 507.683,610.274C508.183,610.495 507.184,611.909 502.667,616.656C501.845,617.521 501.817,617.484 489.446,629.444C477.92,640.588 474.749,643.266 473.409,644.398C469.692,647.536 469.334,647.104 464.48,646.904C455.235,646.522 432.155,647.139 428.473,647.05C425.762,646.859 425.773,647.031 394.497,646.804C388.413,646.76 387.796,647.801 383.321,643.693C364.581,626.484 356.145,616.958 351.176,612.759C350.137,611.88 350.066,611.756 350.443,610.447C350.6,609.905 350.749,610.03 351.323,610.041C356.196,610.134 357.466,611.043 387.411,602.21C388.867,601.78 388.837,601.702 405.528,596.59C414.904,593.719 414.863,593.622 424.317,591.008Z" style="fill:rgb(162,207,233);"/>
            </g>
            <g transform="matrix(0.433816,0,0,0.433816,-45.822395,3.786366)">
                <path d="M265.114,308.643C265.814,307.604 337.011,233.183 337.314,232.414C337.428,232.124 337.39,231.789 337.504,231.499C337.347,231.28 337.465,230.934 337.308,230.715C337.264,230.653 333.947,228.459 333.653,228.265C327.98,224.512 328.013,224.5 322.373,220.7C321.563,220.155 313.337,214.612 312.228,213.907C305.981,209.936 306.038,209.853 305.485,209.524C301.613,207.217 295.426,202.823 292.766,201.073C292.007,200.573 273.376,184.672 273.376,184.672L265.7,162C265.7,162 268.07,154.952 268.13,154.941L366.222,195.463C367.823,196.191 371.105,197.346 373.273,198.85C375.827,200.622 376.075,199.167 381.484,197.45C383.754,196.729 385.313,196.264 386.504,195.94C386.977,195.82 387.461,195.696 387.957,195.571C389.529,195.203 390.494,195.095 392.542,194.689C394.045,194.392 394.709,194.036 395.605,193.68C396.9,193.367 398.238,193.048 399.615,192.724C400.189,192.641 400.455,192.543 407.438,191.208C408.927,190.923 410.242,190.236 414.494,189.466C422.52,188.013 422.484,187.938 430.529,186.657C431.568,186.492 431.535,186.429 443.498,184.488C445.202,184.211 449.323,183.944 452.465,183.287C453.08,183.158 454.195,182.962 455.632,182.75C460.423,182.298 465.006,182.028 469.234,182C471.175,181.987 473.189,182.031 475.263,182.126C480.549,182.718 481.166,182.534 487.497,183.517C496.66,184.939 497.102,184.121 505.546,186.313C508.843,187.169 508.933,186.603 513.469,187.632C514.466,187.858 519.024,188.73 524.11,189.724C543.935,194.227 560.273,199.165 562.691,199.905C563.806,200.42 564.813,200.4 567.326,199.135C572.237,196.665 586.462,190.744 589.509,189.521C596.63,186.663 596.453,186.293 609.317,181.026C609.389,180.997 610.511,180.474 612.246,179.699L669.847,155.952C669.923,155.964 669.995,155.983 670.065,156.007L704.688,218.542C704.369,219.382 703.819,220.204 703.475,221.493C702.894,223.67 702.84,223.641 701.951,225.699C701.666,226.358 701.443,226.912 701.261,227.397L669.26,300.407C668.469,301.496 668.128,302.51 669.995,305.141C671.821,307.712 684.041,325.942 684.898,328.354C684.935,328.458 684.969,328.558 685,328.653L685,349.463C684.987,350.603 684.984,351.898 685,353.701L685,458.367C684.734,459.614 684.019,460.462 682.222,462.232C682.2,462.255 682.175,462.279 682.148,462.305L586,540L585.913,540.752C584.985,542.44 585.052,551.805 583.726,557.543C582.476,562.951 583.494,564.378 581.881,566.967L549.807,594.7C548.646,595.657 547.627,596.531 546.876,597.234L545.676,598.271C545.337,598.501 545.014,598.655 544.698,598.747L478.457,575C478.366,574.129 478.295,573.281 478.243,572.453C478.365,569.949 478.891,566.145 479.079,560.486C479.088,560.207 479.099,559.942 479.111,559.69C479.638,557.34 480.344,555.288 481.145,553.504C482.05,552.249 483.36,550.693 485.266,548.32C486.508,546.773 489.118,543.904 491.673,541.403C493.606,539.647 495.801,537.927 498.054,536.31C501.989,534.02 508.699,530.7 514.858,526.073C514.951,526.025 515,526 515,526C519.671,523.596 522.658,519.893 524.485,516.769C525.629,515.147 526.297,513.532 527.015,510.973C529.825,505.851 529.515,495.861 529.201,491.332C529.574,486.568 530.484,479.475 532.743,463.534C533.305,459.572 533.659,459.643 534.632,451.517C534.937,448.973 534.974,448.995 535.426,446.486C535.669,445.139 535.326,445.113 537.726,429.534C538.168,426.663 538.15,424.226 539.93,416.61C540.069,416.015 540.765,413.317 541.638,410.319C543.457,404.653 545.18,401.413 545.778,400.372C546.04,400.166 546.333,400.004 546.714,399.866L550.706,399.118C553.258,398.77 557.181,398.277 563.459,397.258C569.386,396.295 572.758,394.886 578.44,393.294C580.339,392.762 587.381,390.185 593.206,385.155C597.252,381.661 598.283,380.203 602.64,374.603C602.667,374.568 602.694,374.533 602.722,374.495C609.213,366.396 611.922,359.208 611.998,359.004C612.004,359.001 612.01,358.998 612.016,358.994L613.481,358.471C613.485,358.47 613.489,358.47 613.493,358.469C617.082,357.808 617.022,357.614 620.517,356.551C622.684,355.892 624.788,354.777 626.699,353.75L640,349L639.788,348.558C640.2,348.195 640.486,348.188 640.176,347.668C639.979,347.34 639.652,347.077 639.3,346.924C639.216,346.888 639.132,346.948 639.046,347.005L639,346.91C638.842,346.905 638.685,346.9 638.528,346.896C638.489,346.871 638.448,346.853 638.403,346.851C638.326,346.847 638.276,346.861 638.142,346.885C625.552,346.527 613.855,346.723 603.436,347.198C596.031,347.354 585.314,347.732 570.529,348.837C565.442,349.217 565.513,349.619 560.492,350.445C553.048,351.67 550.938,353.178 548.437,354.371C546.88,355.114 542.285,358.066 540.623,359.626C537.346,362.702 533.581,368.372 533.041,369.185C532.106,370.593 531.964,370.482 530.648,372.59C526.437,379.337 525.567,382.518 525.312,383.452C524.525,386.332 523.239,386 522.737,392.517C522.472,395.961 521.396,398.384 521.935,423.488C522.007,426.833 522.181,434.957 523.477,456.265L525,505C524.075,504.87 518.907,505.314 513.804,505.944C511.421,506.132 508.798,506.467 505.841,507.151C504.92,507.335 504.168,507.516 503.658,507.688C499.298,508.722 493.194,509.529 488.593,510.86C483.081,512.454 481.669,511.846 472.539,513.695C472.103,513.783 471.652,513.899 471.098,514.004C470.303,514.034 469.597,514.035 469,514C465.739,513.81 462.275,513.578 457.963,512.983C456.332,512.658 454.5,512.259 452.438,511.77C451.247,511.488 451.197,511.788 437.486,508.56C436.388,508.301 435.356,508.059 434.384,507.832C430.691,506.833 427.51,506.131 424.79,505.646C419.497,504.49 418.577,504.439 417.51,504.379C415.657,504.276 414.268,504.468 413.177,504.696C412.321,504.754 411.736,504.843 411.39,504.91C411.293,504.785 411.156,504.682 411.028,504.575L413.022,473.907C413.304,471.264 413.556,468.432 413.791,464.523C414.385,454.635 415.527,453.769 416.739,421.509C416.877,417.836 416.983,414.613 417.062,411.779L417.242,409C417.666,404.103 417.573,399.74 417.166,395.908C416.979,390.89 416.484,390.178 416.044,388.631C415.781,387.706 415.488,386.789 415.168,385.883C412.962,378.606 410,375 410,375C409.701,374.579 409.405,374.166 409.11,373.76C402.738,363.878 394.557,356.676 391.299,354.867C386.692,352.31 381.65,351.119 376.213,350.324C375.807,350.221 375.403,350.114 375,350C367.104,347.768 314.896,347.067 302.964,346.935C302.527,346.904 302.185,346.905 301.643,346.92C300.925,346.913 300.538,346.91 300.538,346.91L300.538,346.936C300.237,346.899 299.92,346.987 299.624,346.919C299.228,346.827 298.836,346.682 298.496,346.46C298.046,346.166 298.295,345.77 296.592,345.284C294.467,344.678 293.251,343.803 289.422,342.755C289.218,342.699 285.717,341.932 279.504,339.488C276.552,338.326 276.449,338.681 273.473,337.573C269.654,336.152 258.035,332.978 256.448,332.235C256.165,332.103 255.976,331.727 255.665,331.724C255.46,331.722 255.488,332.123 255.311,332.224C254.492,332.691 254.532,332.17 253.68,331.5C252.262,330.384 252.133,330.565 252.046,330.435C251.716,329.942 252.625,329.924 252.29,329.423C253.042,328.022 253.697,326.823 254.282,325.771L265.114,308.643Z" style="fill:rgb(235,243,247);"/>
            </g>
            <g transform="matrix(0.433816,0,0,0.433816,-28.469773,3.786366)">
                <path d="M212.29,329.423C212.625,329.924 211.716,329.942 212.046,330.435C212.133,330.565 212.262,330.384 213.68,331.5C214.532,332.17 214.492,332.691 215.311,332.224C215.488,332.123 215.46,331.722 215.665,331.724C215.976,331.727 216.165,332.103 216.448,332.235C218.035,332.978 229.654,336.152 233.473,337.573C236.449,338.681 236.552,338.326 239.504,339.488C245.717,341.932 249.218,342.699 249.422,342.755C253.251,343.803 254.467,344.678 256.592,345.284C258.295,345.77 258.046,346.166 258.496,346.46C258.836,346.682 259.228,346.827 259.624,346.919C259.954,346.995 260.309,346.878 260.639,346.954C260.718,347.259 260.473,347.237 260.555,347.553C260.711,348.154 260.995,348.023 261.074,348.629C261.099,348.823 260.733,348.93 260.759,349.125C264.542,350.54 264.626,350.258 268.332,351.911C276.272,356.616 279.347,355.952 285.469,357.622C289.121,358.618 289.194,360.171 291.896,365.287C299.589,379.858 304.843,384.041 312.724,389.144C315.654,391.041 321.194,392.761 322.586,393.247C330.771,396.105 349.437,397.889 349.442,397.89C352.032,398.465 352.275,399.999 354.799,405.365C359.683,415.75 361.349,441.4 364.924,466.441C368.935,494.536 366.848,499.918 368.196,506.424C368.352,510.513 368.349,510.548 369.932,514.32C375.139,526.727 396.116,532.605 406.52,542.478C408.412,544.273 413.308,549.893 414.013,550.869C418.92,557.675 418.138,560.079 419.693,569.466C419.918,570.823 421.729,574.589 419.192,576.044C414.184,578.915 409.773,580.217 405.626,581.818C402.211,583.136 392.059,586.275 388.646,587.829C385.782,589.133 360.281,596.646 357.611,597.738C357.276,597.875 355.393,598.924 353.562,598.342C352.826,598.108 341.875,589.83 337.737,586.226C334.79,583.658 334.653,583.844 331.67,581.3C329.856,579.753 329.748,579.916 326.656,577.31C323.291,574.473 314.536,568.727 314.155,564.526C313.782,560.423 313.779,560.442 312.911,556.423C312.708,555.484 312.66,555.262 311.466,544.504C311.072,540.957 312.157,539.743 308.311,536.777C301.869,531.809 280.21,514.755 279.68,514.29C277.129,512.052 277.079,512.117 256.803,496.12C255.823,495.346 255.876,495.306 244.784,486.157C231.463,475.17 231.483,475.158 229.565,473.427C228.386,472.363 228.269,472.509 214.594,460.382C211.64,457.763 212.236,457.288 212.296,453.495C212.343,450.536 212.256,450.539 212.494,416.5C212.512,413.993 212.268,401.334 212.392,363.499C212.497,331.616 211.84,331.616 211.984,330.544C212.036,330.16 212.238,329.807 212.29,329.423Z" style="fill:rgb(162,207,233);"/>
            </g>
            <g transform="matrix(0.433816,0,0,0.433816,-28.469773,3.786366)">
                <path d="M627.137,185.887C628.024,186.504 617.5,287.002 617.283,287.43C616.69,288.6 615.816,288.225 615.687,288.169C615.532,288.102 614.876,287.284 614.811,287.202C614.381,286.665 560.469,233.616 560.381,232.518C560.254,230.937 626.249,185.269 627.137,185.887Z" style="fill:rgb(24,66,121);"/>
            </g>
            <g transform="matrix(0.433816,0,0,0.433816,-28.469773,8.786366)">
                <path d="M425.5,592.926C425.695,593.254 426.294,593.176 426.489,593.505C427.233,594.757 426.876,594.848 427.081,601.502C427.148,603.669 427.474,637.929 427.294,640.495C427.142,642.652 426.689,642.813 424.524,642.769C413.344,642.543 390.117,642.768 389.448,642.722C389.124,642.699 388.796,642.558 388.478,642.623C388.145,642.692 387.91,643.188 387.58,643.106C387.347,643.049 387.672,642.58 387.529,642.388C387.428,642.254 387.266,642.463 385.837,641.15C384.021,639.483 383.871,639.672 382.131,637.928C381.592,637.387 381.626,637.376 381.096,636.818C380.826,636.534 379.114,635.129 377.643,633.393C375.648,631.038 375.263,631.52 374.788,631.106C374.624,630.963 374.622,630.692 374.471,630.534C374.289,630.344 373.994,630.288 373.818,630.092C373.766,630.034 373.681,629.565 373.018,628.928C372.484,628.414 372.344,628.644 371.812,628.155C371.639,627.996 371.625,627.711 371.462,627.541C371.298,627.371 371.025,627.336 370.861,627.166C370.687,626.985 370.653,626.698 370.477,626.519C370.321,626.361 370.048,626.354 369.898,626.19C369.348,625.586 369.609,625.411 369.017,624.844C368.868,624.701 368.649,624.644 368.504,624.496C368.343,624.333 368.283,624.085 368.117,623.928C367.934,623.754 367.668,623.69 367.479,623.524C367.31,623.375 367.219,623.153 367.058,622.996C366.097,622.059 365.913,622.346 365.847,622.254C365.639,621.968 365.895,620.813 364.34,619.625C363.752,619.176 363.595,619.392 362.132,617.934C361.932,617.734 360.113,615.92 359.663,615.398C359.448,615.15 359.306,614.843 359.081,614.605C358.999,614.519 358.833,614.541 358.761,614.447C358.531,614.15 358.115,613.834 358.202,613.469C358.27,613.188 358.784,613.386 359.045,613.261C359.464,613.06 359.334,612.79 360.509,612.591C372.795,610.508 375.563,608.957 378.491,608.439C383.133,607.619 382.897,606.766 387.516,605.902C390.721,605.303 390.587,604.882 393.711,603.964C395.616,603.404 395.59,603.373 397.53,602.891C399.675,602.358 399.519,602.001 399.975,601.858C400.38,601.73 400.507,602.247 403.359,601.012C403.821,600.812 403.911,601.159 409.375,599.167C414.507,597.295 414.631,597.724 419.809,595.975C424.079,594.532 424.177,594.843 424.508,594.635C425.206,594.197 425.445,593.785 425.5,593.691C425.71,593.329 425.294,593.281 425.5,592.926Z" style="fill:rgb(235,243,247);"/>
            </g>
            <g transform="matrix(0.433816,0,0,0.433816,-28.469773,3.786366)">
                <path d="M557.663,474.781C559.231,473.578 559.921,473.297 562.667,470.668C566.027,467.45 566.556,467.44 567.458,467.628C568.137,467.768 568.446,468.426 569.819,470.263C574.12,476.017 574.185,475.955 574.537,476.471C577.486,480.796 578.505,481.06 578.459,482.497C578.4,484.348 570.88,495.97 569.664,497.617C568.577,499.088 568.708,499.159 567.709,500.651C563.84,506.428 563.862,506.421 560.142,512.278C556.59,517.874 556.697,517.929 556.363,518.397C554.66,520.792 554.655,520.77 553.199,523.341C550.963,527.289 550.393,527.009 549.017,531.333C548.351,533.426 548.654,533.584 547.26,535.289C546.682,535.355 546.103,535.421 545.524,535.486C545.441,534.743 545.2,534.768 545.378,532.508C545.535,530.501 545.635,530.519 545.544,528.499C545.204,520.958 543.899,517.757 543.336,515.54C542.32,511.538 542.843,511.373 536.06,493.554C536.65,493.267 537.304,493.125 537.894,492.838C538.043,492.765 537.981,492.682 539.552,491.591C541.616,490.157 541.431,489.947 543.393,488.358C548.402,484.302 548.136,484.03 552.292,480.281C555.151,477.702 555.164,477.725 557.663,474.781Z" style="fill:rgb(162,207,233);"/>
            </g>
            <g transform="matrix(0.433816,0,0,0.433816,-28.469773,3.786366)">
                <path d="M498.605,299.483C497.057,290.379 493.374,281.654 497.448,281.122C498.744,280.953 502.02,282.545 502.394,282.727C510.339,286.589 517.405,298.457 519.293,303.576C521.897,310.637 517.939,322.533 515.807,326.66C514.485,329.217 514.481,329.207 514.367,329.429C511.448,335.142 511.252,335.007 508.932,338.792C505.181,344.91 504.304,344.517 502.381,351.424C502.157,352.229 502.05,352.159 501.638,352.74C501.52,352.905 501.585,353.298 501.382,353.292C501.305,353.29 499.888,352.45 499.872,352.4C499.704,351.876 500.231,348.821 500.284,348.513C500.556,346.935 501.501,341.452 501.137,328.516C500.52,306.612 498.676,299.891 498.605,299.483Z" style="fill:rgb(19,40,78);"/>
            </g>
            <g transform="matrix(0.433816,0,0,0.433816,-28.469773,3.786366)">
                <path d="M353.262,348.841C353.163,348.623 352.912,348.498 352.813,348.28C352.573,347.752 352.055,345.292 350.768,343.332C349.213,340.964 349.02,340.214 347.671,338.381C343.356,332.521 334.256,316.956 336.163,307.425C337.055,302.964 341.014,296.883 342.179,295.272C345.631,290.503 347.731,288.467 348.489,287.49C349.78,285.824 354.602,282.935 355.523,282.548C358.775,281.182 359.936,279.85 361.158,280.859C362.451,281.926 360.977,284.036 359.84,292.548C359.37,296.068 359.161,296.02 358.576,299.513C357.055,308.581 356.256,308.501 355.399,332.497C355.22,337.519 355.075,337.497 354.849,342.51C354.658,346.764 355.682,346.951 354.929,347.757C353.885,348.876 353.683,348.568 353.262,348.841Z" style="fill:rgb(19,40,78);"/>
            </g>
            <g transform="matrix(0.433816,0,0,0.433816,-28.469773,3.786366)">
                <path d="M246.515,450.484C242.211,446.042 239.548,443.266 242.443,439.449C243.762,437.71 253.915,430.413 254.297,430.163C256.135,428.962 256.949,428.039 258.474,428.552C259.246,428.812 259.783,430.048 259.904,430.252C263.231,435.854 263.317,435.773 266.912,441.216C267.354,441.885 272.346,448.6 272.349,448.606C272.468,448.789 273.368,450.177 272.341,451.334C271.833,451.907 267.995,454.431 267.607,454.686C264.123,456.979 263.649,458.395 261.389,459.011C256.69,460.291 248.456,452.211 246.515,450.484Z" style="fill:rgb(20,45,85);"/>
            </g>
            <g transform="matrix(0.433816,0,0,0.433816,-28.469773,3.786366)">
                <path d="M604.514,375.507L605.335,375.128C605.687,375.146 605.992,374.79 606.344,374.808C606.562,374.819 606.315,375.197 608.553,376.411C609.387,376.863 619.787,383.993 622.259,386.722C625.095,389.852 624.621,392.559 624.055,406.481C623.803,412.674 623.604,412.832 623.182,413.167C622.49,413.718 621.705,413.349 621.589,413.295C621.231,413.126 621.402,412.867 617.441,410.589C616.559,410.082 604.018,401.973 603.121,399.651C602.365,397.696 603.328,396.013 603.926,382.519C604.083,378.98 604.137,379.007 604.514,375.507Z" style="fill:rgb(24,66,121);"/>
            </g>
            <g transform="matrix(0.433816,0,0,0.433816,-28.469773,3.786366)">
                <path d="M615.015,441.545C614.794,443.667 615.112,445.466 611.594,448.606C610.907,449.219 604.966,453.893 604.386,454.349C596.834,460.291 595.667,458.79 591.636,456.265C586.755,453.208 584.55,452.231 584.306,451.657C584.204,451.417 583.942,449.877 583.969,449.769C584.089,449.273 591.021,440.604 594.296,434.397C595.343,432.41 595.457,432.486 596.455,430.476C597.722,427.922 599.406,429.242 603.506,431.49C604.688,432.137 610.267,435.852 611.35,436.7C611.895,437.126 613.384,438.524 613.427,438.571C614.59,439.825 614.4,439.939 615.015,441.545Z" style="fill:rgb(24,66,121);"/>
            </g>
            <g transform="matrix(0.433816,0,0,0.433816,-28.469773,3.786366)">
                <path d="M232.69,400.492C232.502,396.41 232.481,396.435 232.437,394.502C232.321,389.364 232.53,388.989 238.243,384.184C245.186,378.342 245.358,377.691 247.285,376.235C248.864,375.042 248.863,374.254 250.669,375.091C251.608,375.525 252.066,376.373 252.086,379.499C252.199,396.432 253.687,397.276 252.131,400.268C250.868,402.696 242.75,408.622 239.573,410.62C235.738,413.032 234.76,414.382 233.639,413.357C233.108,412.871 233.256,412.738 232.69,400.492Z" style="fill:rgb(22,45,87);"/>
            </g>
            <g transform="matrix(0.433816,0,0,0.433816,-28.469773,3.786366)">
                <path d="M495.447,217.544C499.156,222.239 501.363,227.028 498.38,228.216C494.173,229.893 475.96,232.233 470.572,218.47C468.152,212.289 468.58,211.369 467.771,209.386C467.142,207.844 466.188,207.538 467.536,206.553C468.097,206.142 469.341,206.497 469.491,206.54C476.606,208.571 482.72,208.905 490.574,213.371C492.627,214.538 495.096,217.17 495.447,217.544Z" style="fill:rgb(24,66,121);"/>
            </g>
            <g transform="matrix(0.433816,0,0,0.433816,-28.469773,3.786366)">
                <path d="M385.569,222.544C383.842,224.987 383.299,226.349 375.616,228.89C370.556,230.563 360.767,230.132 359.799,227.343C359.036,225.145 361.114,222.72 361.384,222.405C362.55,221.045 363.331,219.734 363.479,219.487C363.74,219.048 364.464,217.834 367.706,214.703C370.764,211.75 382.165,208.772 383.479,208.429C387.419,207.399 390.686,206.116 391.463,206.572C392.324,207.078 392.063,208.227 392.03,208.374C391.935,208.791 391.696,208.679 390.045,213.329C390.018,213.404 387.771,219.181 387.101,220.237C386.357,221.407 386.315,221.351 385.569,222.544Z" style="fill:rgb(19,40,78);"/>
            </g>
            <g transform="matrix(0.433816,0,0,0.433816,-28.469773,3.786366)">
                <path d="M549.782,296.175C558.046,303.983 559.324,313.257 548.455,315.218C547.459,315.398 547.463,315.367 543.55,315.808C541.954,315.988 541.677,316.609 540.659,315.371C539.524,313.992 541.389,312.092 537.862,300.395C536.53,295.978 536.655,295.958 535.064,291.637C534.557,290.259 534.069,290.023 535.167,289.065C536.256,288.115 536.391,288.882 538.478,289.559C544.942,291.658 548.257,294.852 549.782,296.175Z" style="fill:rgb(24,66,121);"/>
            </g>
            <g transform="matrix(0.433816,0,0,0.433816,-28.469773,3.786366)">
                <path d="M501.71,259.167C501.107,258.768 497.02,256.068 494.949,253.164C493.837,251.604 490.87,245.577 492.11,244.211C493.004,243.226 493.173,243.539 494.498,243.584C504.994,243.943 507.051,245.381 510.488,247.518C517.884,252.119 521.168,263.198 519.846,264.759C518.631,266.194 517.175,265.037 516.416,264.731C511.885,262.904 510.96,264.427 501.71,259.167Z" style="fill:rgb(24,66,121);"/>
            </g>
            <g transform="matrix(0.433816,0,0,0.433816,-28.469773,3.786366)">
                <path d="M313.519,316.399C307.531,315.419 303.207,315.237 301.354,310.554C298.615,303.63 302.619,299.932 306.609,296.632C307.136,296.196 309.524,294.221 313.775,291.978C318.496,289.487 318.241,289.088 318.658,288.889C318.843,288.801 320.261,288.745 320.464,289.514C320.644,290.192 319.766,292.329 319.67,292.562C317.227,298.508 316.973,310.133 317.023,312.519C317.071,314.809 317.931,315.204 316.392,316.347C315.157,317.264 315.032,316.666 313.519,316.399Z" style="fill:rgb(24,66,121);"/>
            </g>
            <g transform="matrix(0.433816,0,0,0.433816,-28.469773,3.786366)">
                <path d="M353.495,264.648C349.813,263.956 347.84,263.19 350.51,256.504C350.78,255.829 351.602,253.772 356.816,249.951C359.326,248.111 370.904,242.976 373.535,245.451C375.665,247.456 373.077,252.791 370.611,255.591C365.918,260.92 361.997,264.193 353.495,264.648Z" style="fill:rgb(24,66,121);"/>
            </g>
            <g transform="matrix(0.433816,0,0,0.433816,-28.469773,3.786366)">
                <path d="M462.486,273.509C460.907,270.814 460.629,268.884 461.04,265.442C461.237,263.801 461.561,258.636 464.563,256.605C467.428,254.668 476.509,256.914 478.802,264.404C479.02,265.118 480.126,268.73 476.414,273.43C472.116,278.873 466.55,276.877 465.589,276.339C463.725,275.296 463.843,275.144 462.486,273.509Z" style="fill:rgb(24,66,121);"/>
            </g>
            <g transform="matrix(0.433816,0,0,0.433816,-28.469773,3.786366)">
                <path d="M430.704,288.668C429.342,290.2 428.438,291.828 425.761,288.314C420.532,281.45 419.787,267.61 426.772,261.817C430.654,258.597 438.356,266.354 433.575,283.522C432.788,286.346 430.934,288.368 430.704,288.668Z" style="fill:rgb(24,66,121);"/>
            </g>
            <g transform="matrix(0.433816,0,0,0.433816,-28.469773,3.786366)">
                <path d="M454.595,312.462C454.474,312.079 452.727,307.929 454.118,303.367C454.907,300.776 458.098,296.624 458.887,295.888C461.154,293.776 465.492,295.373 467.516,296.471C473.255,299.583 468.908,309.008 464.692,314.641C461.695,318.645 460.568,319.392 459.535,319.297C457.631,319.121 454.875,313.076 454.595,312.462Z" style="fill:rgb(24,66,121);"/>
            </g>
            <g transform="matrix(0.433816,0,0,0.433816,-28.469773,3.786366)">
                <path d="M404.435,306.51C404.74,310.367 405.054,313.654 399.864,318.91C398.123,320.674 396.638,319.16 394.08,315.796C391.144,311.933 387.703,304.627 388.729,301.567C389.049,300.614 391.143,296.754 394.46,296.28C403.168,295.035 404.112,305.096 404.435,306.51Z" style="fill:rgb(24,66,121);"/>
            </g>
            <g transform="matrix(0.433816,0,0,0.433816,-28.469773,3.786366)">
                <path d="M440.298,243.677C439.268,242.272 437.261,240.051 437.641,230.509C437.79,226.762 439.358,220.304 443.571,221.076C449.448,222.155 453.739,231.17 449.88,238.671C444.625,248.885 441.717,245.01 440.298,243.677Z" style="fill:rgb(24,66,121);"/>
            </g>
            <g transform="matrix(0.433816,0,0,0.433816,-28.469773,3.786366)">
                <path d="M408.782,239.397C407.663,235.83 405.602,230.738 409.487,224.491C410.982,222.086 415.348,219.044 417.514,221.489C419.26,223.461 422.888,238.303 417.85,243.832C415.854,246.022 413.633,244.885 413.389,244.794C410.089,243.551 409.146,240.239 408.782,239.397Z" style="fill:rgb(24,66,121);"/>
            </g>
            <g transform="matrix(0.433816,0,0,0.433816,-28.469773,3.786366)">
                <path d="M388.534,279.374C388.133,279.218 387.718,279.097 387.316,278.94C382.325,276.995 378.774,270.762 386.105,263.11C394.649,254.191 398.397,263.651 398.08,269.501C397.477,280.634 391.032,279.696 388.534,279.374Z" style="fill:rgb(24,66,121);"/>
            </g>
            <g transform="matrix(0.433816,0,0,0.433816,-28.469773,3.786366)">
                <path d="M579.419,324.687C573.81,322.261 570.271,322.112 566.457,320.579C564.55,319.812 565.28,316.73 565.643,314.522C566.699,308.09 566.484,308.076 566.586,307.52C566.623,307.318 566.979,305.374 568.448,305.764C570.041,306.189 576.044,314.1 577.622,316.416C580.058,319.994 579.891,320.103 582.815,323.31C582.967,323.477 584.627,325.297 583.29,326.089C582.38,326.629 582.338,326.259 581.427,325.737C581.427,325.737 579.579,324.771 579.419,324.687Z" style="fill:rgb(39,77,116);"/>
            </g>
            <g transform="matrix(0.433816,0,0,0.433816,-28.469773,3.786366)">
                <path d="M274.222,324.423C281.79,313.426 281.73,313.372 286.803,307.771C288.09,306.349 288.494,305.868 289.833,307.234C291.099,308.524 289.337,308.99 290.598,314.475C291.764,319.546 290.411,319.78 285.624,321.798C280.462,323.975 280.341,323.699 275.493,326.477C275.236,326.259 274.745,326.794 274.487,326.577C274.354,326.465 274.469,326.43 274.222,324.423Z" style="fill:rgb(24,66,121);"/>
            </g>
            <g transform="matrix(0.433816,0,0,0.433816,-28.469773,3.786366)">
                <path d="M443.632,345.458C443.469,344.838 442.436,340.889 442.647,337.509C442.983,332.126 444.762,330.301 445.419,329.434C447.684,326.445 450.144,328.722 450.615,329.405C455.564,336.574 448.966,348.646 445.572,348.259C444.243,348.107 443.678,345.568 443.632,345.458Z" style="fill:rgb(24,66,121);"/>
            </g>
            <g transform="matrix(0.433816,0,0,0.433816,-28.469773,3.786366)">
                <path d="M406.201,337.57C406.175,337.391 405.172,335.167 407.267,331.357C409.083,328.055 411.285,329.119 411.633,329.287C416.516,331.644 416.194,349.389 410.532,347.435C408.591,346.764 406.418,338.404 406.201,337.57Z" style="fill:rgb(24,66,121);"/>
            </g>
            <g transform="matrix(0.433816,0,0,0.433816,-28.469773,3.786366)">
                <path d="M336.182,260.209C335.603,260.776 333.029,263.704 331.177,261.816C329.361,259.966 332.185,254.145 337.803,249.862C338.318,249.469 343.994,245.141 344.501,245.32C345.873,245.803 345.97,246.124 345.436,247.48C345.085,248.373 343.97,249.313 342.601,251.561C340.959,254.257 340.648,254.022 338.869,256.743C337.66,258.592 337.658,258.579 336.182,260.209Z" style="fill:rgb(24,66,121);"/>
            </g>
            <g transform="matrix(0.433816,0,0,0.433816,-28.469773,3.786366)">
                <path d="M430.906,311.272C431.595,312.646 432.598,314.1 432.206,318.473C431.889,322.014 430.096,326.281 428.491,326.433C425.3,326.737 425.386,318.236 425.861,315.553C426.29,313.134 427.479,310.215 427.87,309.879C428.464,309.368 429.331,309.573 429.457,309.603C430.605,309.875 430.278,310.278 430.906,311.272Z" style="fill:rgb(24,66,121);"/>
            </g>
            <g transform="matrix(0.433816,0,0,0.433816,-28.469773,3.786366)">
                <path d="M437.927,206.479C437.659,202.015 437.536,201.672 438.37,201.272C439.017,200.962 439.105,200.734 439.626,201.245C439.989,201.602 440.103,201.556 440.568,202.447C440.698,202.696 440.806,202.956 440.94,203.203C444.643,210.057 442.24,213.385 440.496,213.417C438.13,213.461 438.186,209.352 437.927,206.479Z" style="fill:rgb(24,66,121);"/>
            </g>
            <g transform="matrix(0.433816,0,0,0.433816,-28.469773,3.786366)">
                <path d="M415.83,204.729C416.653,205.062 416.293,203.601 417.116,203.934C417.233,203.981 417.196,204.018 417.584,205.438C418.235,207.82 417.476,214.543 417.056,215.227C416.908,215.468 414.262,217.508 414.785,212.526C415.393,206.741 415.696,205.344 415.83,204.729Z" style="fill:rgb(24,66,121);"/>
            </g>
            <g transform="matrix(0.433816,0,0,0.433816,-28.469773,3.786366)">
                <path d="M570.116,311.968C570.795,313.237 570.762,313.244 571.762,314.302C573.135,315.754 573.11,316.334 573.96,317.121C574.13,317.279 575.885,318.903 575.565,319.548C575.327,320.026 573.672,319.723 573.51,319.694C573.17,319.631 572.848,319.476 572.504,319.444C572.17,319.412 571.794,319.664 571.499,319.504C571.063,319.266 570.921,318.678 570.531,318.371C570.315,318.201 569.972,318.277 569.745,318.122C569.338,317.845 569.262,315.929 569.107,315.711C568.977,315.528 568.615,315.611 568.5,315.417C568.415,315.274 568.387,313.628 568.464,313.5C568.823,312.909 569.543,312.596 569.901,312.004L570.116,311.968Z" style="fill:rgb(24,66,121);"/>
            </g>
            <g transform="matrix(0.433816,0,0,0.433816,-28.469773,3.786366)">
                <path d="M545.524,535.486C546.103,535.421 546.682,535.355 547.26,535.289C546.177,536.05 546.153,537.646 545.643,536.424C545.455,535.975 545.714,535.942 545.524,535.486Z" style="fill:rgb(209,221,227);"/>
            </g>
            <g transform="matrix(0.433816,0,0,0.433816,-28.469773,3.786366)">
                <path d="M570.116,311.968L569.901,312.004C569.524,311.587 568.668,311.917 568.291,311.5C562.892,305.518 570.009,311.861 570.116,311.968Z" style="fill:rgb(35,86,131);"/>
            </g>
            <g transform="matrix(0.433816,0,0,0.433816,-28.469773,3.786366)">
                <path d="M230.927,183.232C231.088,183.678 231.25,184.125 231.411,184.572L230.851,184.036L230.927,183.232Z" style="fill:rgb(177,202,218);"/>
            </g>
            <g transform="matrix(0.433816,0,0,0.433816,-45.822395,3.786366)">
                <path d="M273,299L338,231C338,231 286.631,198.644 272,185L265,162L236,219L273,299Z" style="fill:rgb(24,66,121);"/>
            </g>
            <g transform="matrix(1,0,0,1,0.157713,0.53218)">
                <path d="M211,161C211,161 210.088,160.956 208.676,160.963C207.295,160.969 198.026,162.003 196,163C190.953,165.485 189,171 189,171C189,171 194.131,169.618 198,169C201.869,168.382 208.312,165.373 211,161Z" style="fill:rgb(26,151,244);"/>
            </g>
        </g>
        <g transform="matrix(1.023902,0,0,1.023902,-549.885675,-108.723802)">
            <path d="M840.041,265.162C840.041,265.255 840.721,264.396 842.08,262.586C843.44,260.776 844.963,258.803 846.651,256.668C848.62,254.162 850.87,251.331 853.401,248.175C855.932,249.939 858.51,251.517 861.136,252.909C863.386,254.116 865.823,255.183 868.448,256.111C871.073,257.04 873.558,257.504 875.901,257.504C877.308,257.504 878.737,257.295 880.191,256.877C881.644,256.459 882.956,255.879 884.128,255.137C885.3,254.394 886.261,253.512 887.011,252.491C887.761,251.47 888.136,250.356 888.136,249.15C888.136,246.272 886.495,243.743 883.214,241.561C879.933,239.38 875.901,237.361 871.12,235.504C868.12,234.298 865.003,232.789 861.768,230.979C858.534,229.169 855.581,226.988 852.909,224.435C850.237,221.883 848.057,218.935 846.37,215.594C844.682,212.252 843.838,208.493 843.838,204.316C843.838,200.324 844.518,196.518 845.877,192.898C847.237,189.278 849.276,186.076 851.995,183.291C854.713,180.506 858.089,178.302 862.12,176.677C866.151,175.053 870.886,174.241 876.323,174.241C880.542,174.241 884.386,174.751 887.855,175.772C891.324,176.793 894.464,178 897.277,179.392C900.09,180.785 902.527,182.247 904.59,183.778C906.652,185.31 908.387,186.586 909.793,187.607L896.855,205.012C896.574,204.826 895.754,204.246 894.394,203.271C893.035,202.297 891.371,201.276 889.402,200.208C887.433,199.141 885.23,198.166 882.792,197.284C880.355,196.402 877.823,195.961 875.198,195.961C872.667,195.961 870.464,196.634 868.589,197.98C866.714,199.326 865.776,200.928 865.776,202.784C865.776,205.383 867.018,207.727 869.503,209.815C871.987,211.904 876.042,214.062 881.667,216.29C884.386,217.404 887.41,218.796 890.738,220.467C894.066,222.138 897.16,224.226 900.019,226.733C902.879,229.239 905.269,232.232 907.191,235.713C909.113,239.194 910.074,243.302 910.074,248.036C910.074,251.656 909.324,255.299 907.824,258.966C906.324,262.632 904.144,265.974 901.285,268.991C898.425,272.007 894.933,274.467 890.808,276.37C886.683,278.273 882.042,279.225 876.886,279.225C872.292,279.225 867.909,278.621 863.737,277.414C859.565,276.208 855.815,274.792 852.487,273.168C849.159,271.543 846.393,269.965 844.19,268.434C841.987,266.902 840.604,265.811 840.041,265.162Z" style="fill:rgb(26,151,244);fill-rule:nonzero;"/>
            <path d="M1003.733,279.225L944.387,240.378L944.387,275.465L922.449,275.465L922.449,201.531L981.795,240.378L981.795,205.847L1003.733,205.847L1003.733,279.225Z" style="fill:rgb(26,151,244);fill-rule:nonzero;"/>
            <path d="M1014.718,240.378C1014.718,234.994 1015.75,229.958 1017.812,225.271C1019.875,220.583 1022.687,216.476 1026.25,212.948C1029.812,209.421 1033.961,206.636 1038.695,204.594C1043.43,202.552 1048.516,201.531 1053.954,201.531C1059.391,201.531 1064.477,202.552 1069.212,204.594C1073.946,206.636 1078.095,209.421 1081.657,212.948C1085.22,216.476 1088.033,220.583 1090.095,225.271C1092.158,229.958 1093.189,234.994 1093.189,240.378C1093.189,245.761 1092.158,250.797 1090.095,255.485C1088.033,260.172 1085.22,264.28 1081.657,267.807C1078.095,271.334 1073.946,274.119 1069.212,276.161C1064.477,278.203 1059.391,279.225 1053.954,279.225C1048.516,279.225 1043.43,278.203 1038.695,276.161C1033.961,274.119 1029.812,271.334 1026.25,267.807C1022.687,264.28 1019.875,260.172 1017.812,255.485C1015.75,250.797 1014.718,245.761 1014.718,240.378ZM1036.656,240.378C1036.656,242.791 1037.102,245.019 1037.992,247.061C1038.883,249.103 1040.125,250.913 1041.719,252.491C1043.313,254.069 1045.141,255.299 1047.203,256.181C1049.266,257.063 1051.516,257.504 1053.954,257.504C1056.297,257.504 1058.524,257.063 1060.633,256.181C1062.743,255.299 1064.571,254.069 1066.118,252.491C1067.665,250.913 1068.884,249.103 1069.774,247.061C1070.665,245.019 1071.11,242.791 1071.11,240.378C1071.11,238.057 1070.665,235.853 1069.774,233.764C1068.884,231.675 1067.665,229.865 1066.118,228.334C1064.571,226.802 1062.743,225.595 1060.633,224.714C1058.524,223.832 1056.297,223.391 1053.954,223.391C1051.516,223.391 1049.266,223.832 1047.203,224.714C1045.141,225.595 1043.313,226.802 1041.719,228.334C1040.125,229.865 1038.883,231.675 1037.992,233.764C1037.102,235.853 1036.656,238.057 1036.656,240.378Z" style="fill:rgb(26,151,244);fill-rule:nonzero;"/>
            <path d="M1195.917,279.225L1155.276,248.871L1114.634,279.225L1098.884,205.847L1121.244,205.847L1127.712,242.884L1155.276,223.809L1182.839,242.884L1189.308,205.847L1211.668,205.847L1195.917,279.225Z" style="fill:rgb(26,151,244);fill-rule:nonzero;"/>
        </g>
        <g transform="matrix(1.576699,0,0,1.576699,-1550.935548,-380.081095)">
            <path d="M1154.437,421L1154.437,343L1171.993,343L1171.993,403.617L1202.83,403.617L1202.83,421L1154.437,421Z" style="fill:rgb(19,40,78);fill-rule:nonzero;"/>
            <path d="M1232.429,399.383C1232.954,400.274 1233.611,401.166 1234.398,402.057C1235.186,402.949 1236.18,403.729 1237.381,404.397C1238.581,405.066 1240.026,405.604 1241.714,406.013C1243.402,406.421 1245.409,406.626 1247.735,406.626C1250.061,406.626 1252.049,406.459 1253.7,406.124C1255.35,405.79 1256.738,405.437 1257.864,405.066C1259.139,404.62 1260.227,404.063 1261.127,403.394L1272.494,414.537C1271.069,416.023 1269.399,417.341 1267.486,418.493C1265.573,419.644 1263.51,420.629 1261.296,421.446C1259.083,422.263 1256.813,422.894 1254.487,423.34C1252.161,423.786 1249.911,424.009 1247.735,424.009C1242.558,424.009 1237.831,423.191 1233.554,421.557C1229.278,419.923 1225.62,417.694 1222.581,414.871C1219.543,412.049 1217.179,408.761 1215.491,405.01C1213.803,401.259 1212.959,397.229 1212.959,392.92C1212.959,388.611 1213.784,384.581 1215.435,380.83C1217.086,377.079 1219.336,373.791 1222.188,370.969C1225.039,368.146 1228.359,365.917 1232.148,364.283C1235.937,362.649 1240.007,361.831 1244.358,361.831C1248.71,361.831 1252.78,362.649 1256.569,364.283C1260.358,365.917 1263.678,368.146 1266.529,370.969C1269.381,373.791 1271.631,377.079 1273.282,380.83C1274.933,384.581 1275.758,388.611 1275.758,392.92L1275.758,399.383L1232.429,399.383ZM1244.358,377.097C1243.908,377.097 1243.102,377.153 1241.939,377.264C1240.776,377.376 1239.519,377.747 1238.169,378.379C1236.818,379.01 1235.505,379.957 1234.23,381.22C1232.954,382.483 1231.979,384.229 1231.304,386.457L1257.188,386.457C1256.513,384.229 1255.557,382.483 1254.319,381.22C1253.081,379.957 1251.786,379.01 1250.436,378.379C1249.085,377.747 1247.847,377.376 1246.722,377.264C1245.596,377.153 1244.809,377.097 1244.358,377.097Z" style="fill:rgb(19,40,78);fill-rule:nonzero;"/>
            <path d="M1285.887,392.92C1285.887,388.611 1286.712,384.581 1288.363,380.83C1290.013,377.079 1292.264,373.791 1295.115,370.969C1297.966,368.146 1301.286,365.917 1305.075,364.283C1308.864,362.649 1312.935,361.831 1317.286,361.831C1321.638,361.831 1325.708,362.649 1329.497,364.283C1333.286,365.917 1336.606,368.146 1339.457,370.969C1342.308,373.791 1344.559,377.079 1346.21,380.83C1347.86,384.581 1348.686,388.611 1348.686,392.92C1348.686,397.229 1347.86,401.259 1346.21,405.01C1344.559,408.761 1342.308,412.049 1339.457,414.871C1336.606,417.694 1333.286,419.923 1329.497,421.557C1325.708,423.191 1321.638,424.009 1317.286,424.009C1312.935,424.009 1308.864,423.191 1305.075,421.557C1301.286,419.923 1297.966,417.694 1295.115,414.871C1292.264,412.049 1290.013,408.761 1288.363,405.01C1286.712,401.259 1285.887,397.229 1285.887,392.92ZM1303.443,392.92C1303.443,394.851 1303.8,396.634 1304.513,398.269C1305.225,399.903 1306.22,401.351 1307.495,402.614C1308.771,403.877 1310.234,404.861 1311.884,405.567C1313.535,406.273 1315.336,406.626 1317.286,406.626C1319.162,406.626 1320.944,406.273 1322.632,405.567C1324.32,404.861 1325.783,403.877 1327.021,402.614C1328.259,401.351 1329.235,399.903 1329.947,398.269C1330.66,396.634 1331.016,394.851 1331.016,392.92C1331.016,391.063 1330.66,389.299 1329.947,387.627C1329.235,385.956 1328.259,384.507 1327.021,383.281C1325.783,382.056 1324.32,381.09 1322.632,380.384C1320.944,379.679 1319.162,379.326 1317.286,379.326C1315.336,379.326 1313.535,379.679 1311.884,380.384C1310.234,381.09 1308.771,382.056 1307.495,383.281C1306.22,384.507 1305.225,385.956 1304.513,387.627C1303.8,389.299 1303.443,391.063 1303.443,392.92Z" style="fill:rgb(19,40,78);fill-rule:nonzero;"/>
            <path d="M1358.815,365.286L1374.233,365.286L1374.908,368.294C1377.609,366.363 1380.479,364.803 1383.518,363.614C1386.556,362.426 1389.539,361.831 1392.465,361.831C1396.817,361.831 1400.887,362.649 1404.676,364.283C1408.465,365.917 1411.785,368.146 1414.636,370.969C1417.487,373.791 1419.738,377.097 1421.388,380.886C1423.039,384.674 1423.864,388.723 1423.864,393.031C1423.864,397.34 1423.039,401.37 1421.388,405.121C1419.738,408.873 1417.487,412.16 1414.636,414.983C1411.785,417.806 1408.465,420.034 1404.676,421.669C1400.887,423.303 1396.817,424.12 1392.465,424.12C1389.914,424.12 1387.494,423.73 1385.206,422.95C1382.918,422.17 1380.76,421.149 1378.735,419.886L1378.735,442.951L1361.065,442.951L1361.065,393.031L1358.815,365.286ZM1406.308,393.031C1406.308,391.174 1405.951,389.391 1405.239,387.683C1404.526,385.974 1403.532,384.507 1402.256,383.281C1400.981,382.056 1399.499,381.071 1397.811,380.329C1396.123,379.586 1394.341,379.214 1392.465,379.214C1390.514,379.214 1388.713,379.586 1387.063,380.329C1385.412,381.071 1383.968,382.056 1382.73,383.281C1381.492,384.507 1380.517,385.974 1379.804,387.683C1379.091,389.391 1378.735,391.174 1378.735,393.031C1378.885,396.969 1380.254,400.219 1382.842,402.781C1385.431,405.344 1388.638,406.626 1392.465,406.626C1394.341,406.626 1396.123,406.273 1397.811,405.567C1399.499,404.861 1400.981,403.896 1402.256,402.67C1403.532,401.444 1404.526,400.014 1405.239,398.38C1405.951,396.746 1406.308,394.963 1406.308,393.031Z" style="fill:rgb(19,40,78);fill-rule:nonzero;"/>
            <path d="M1430.65,392.92C1430.65,388.611 1431.476,384.581 1433.126,380.83C1434.777,377.079 1437.028,373.791 1439.879,370.969C1442.73,368.146 1446.05,365.917 1449.839,364.283C1453.628,362.649 1457.698,361.831 1462.05,361.831C1466.401,361.831 1470.472,362.649 1474.261,364.283C1478.05,365.917 1481.37,368.146 1484.221,370.969C1487.072,373.791 1489.323,377.079 1490.973,380.83C1492.624,384.581 1493.449,388.611 1493.449,392.92L1495.7,421L1480.282,421L1479.494,417.1C1476.568,419.254 1473.567,420.944 1470.491,422.17C1467.414,423.396 1464.601,424.009 1462.05,424.009C1457.698,424.009 1453.628,423.191 1449.839,421.557C1446.05,419.923 1442.73,417.694 1439.879,414.871C1437.028,412.049 1434.777,408.761 1433.126,405.01C1431.476,401.259 1430.65,397.229 1430.65,392.92ZM1448.207,392.92C1448.207,394.851 1448.563,396.634 1449.276,398.269C1449.989,399.903 1450.983,401.351 1452.259,402.614C1453.534,403.877 1454.997,404.861 1456.648,405.567C1458.298,406.273 1460.099,406.626 1462.05,406.626C1463.926,406.626 1465.707,406.273 1467.396,405.567C1469.084,404.861 1470.547,403.877 1471.785,402.614C1473.023,401.351 1473.998,399.903 1474.711,398.269C1475.424,396.634 1475.78,394.851 1475.78,392.92C1475.78,391.063 1475.424,389.299 1474.711,387.627C1473.998,385.956 1473.023,384.507 1471.785,383.281C1470.547,382.056 1469.084,381.09 1467.396,380.384C1465.707,379.679 1463.926,379.326 1462.05,379.326C1460.099,379.326 1458.298,379.679 1456.648,380.384C1454.997,381.09 1453.534,382.056 1452.259,383.281C1450.983,384.507 1449.989,385.956 1449.276,387.627C1448.563,389.299 1448.207,391.063 1448.207,392.92Z" style="fill:rgb(19,40,78);fill-rule:nonzero;"/>
            <path d="M1524.635,421L1506.966,421L1506.966,393.366L1504.715,365.286L1520.133,365.286L1520.808,368.851C1523.734,366.697 1526.754,364.989 1529.868,363.726C1532.982,362.463 1535.814,361.831 1538.365,361.831C1542.492,361.831 1546.506,362.649 1550.407,364.283L1542.529,379.994C1541.179,379.549 1539.791,379.326 1538.365,379.326C1536.414,379.326 1534.614,379.679 1532.963,380.384C1531.312,381.09 1529.868,382.056 1528.63,383.281C1527.392,384.507 1526.417,385.956 1525.704,387.627C1524.991,389.299 1524.635,391.063 1524.635,392.92L1524.635,421Z" style="fill:rgb(19,40,78);fill-rule:nonzero;"/>
            <path d="M1613.774,421L1598.356,421L1597.681,417.657C1594.98,419.589 1592.11,421.13 1589.071,422.281C1586.032,423.433 1583.05,424.009 1580.124,424.009C1575.772,424.009 1571.702,423.191 1567.913,421.557C1564.124,419.923 1560.804,417.694 1557.953,414.871C1555.102,412.049 1552.851,408.761 1551.2,405.01C1549.55,401.259 1548.725,397.229 1548.725,392.92C1548.725,388.611 1549.55,384.581 1551.2,380.83C1552.851,377.079 1555.102,373.791 1557.953,370.969C1560.804,368.146 1564.124,365.917 1567.913,364.283C1571.702,362.649 1575.772,361.831 1580.124,361.831C1582.675,361.831 1585.095,362.221 1587.383,363.001C1589.671,363.781 1591.828,364.803 1593.854,366.066L1593.854,343L1611.523,343L1611.523,392.92L1613.774,421ZM1566.281,392.92C1566.281,394.851 1566.638,396.634 1567.35,398.269C1568.063,399.903 1569.057,401.351 1570.333,402.614C1571.608,403.877 1573.071,404.861 1574.722,405.567C1576.373,406.273 1578.173,406.626 1580.124,406.626C1582,406.626 1583.782,406.273 1585.47,405.567C1587.158,404.861 1588.621,403.877 1589.859,402.614C1591.097,401.351 1592.072,399.903 1592.785,398.269C1593.498,396.634 1593.854,394.851 1593.854,392.92C1593.704,388.983 1592.335,385.733 1589.746,383.17C1587.158,380.607 1583.95,379.326 1580.124,379.326C1578.173,379.326 1576.373,379.679 1574.722,380.384C1573.071,381.09 1571.608,382.056 1570.333,383.281C1569.057,384.507 1568.063,385.956 1567.35,387.627C1566.638,389.299 1566.281,391.063 1566.281,392.92Z" style="fill:rgb(19,40,78);fill-rule:nonzero;"/>
        </g>
        <g transform="matrix(0.30431,0,-0,0.30431,745.814117,165.882156)">
            <path d="M840.041,275.465L840.041,178L861.979,178L861.979,253.744L900.511,253.744L900.511,275.465L840.041,275.465Z" style="fill:rgb(19,40,78);fill-rule:nonzero;"/>
            <path d="M956.664,174.241L1004.337,275.465L980.008,275.465L974.102,260.985L939.226,260.985L933.32,275.465L908.991,275.465L956.664,174.241ZM948.086,239.264L965.102,239.264L956.664,218.239L948.086,239.264Z" style="fill:rgb(19,40,78);fill-rule:nonzero;"/>
            <path d="M1047.692,253.605C1050.411,253.605 1052.778,253.095 1054.794,252.074C1056.81,251.052 1057.817,248.825 1057.817,245.39C1057.817,243.812 1057.536,242.513 1056.974,241.492C1056.411,240.471 1055.685,239.682 1054.794,239.125C1053.903,238.568 1052.872,238.173 1051.7,237.941C1050.528,237.709 1049.333,237.593 1048.114,237.593L1034.895,237.593L1034.895,253.605L1047.692,253.605ZM1055.427,207.796C1055.427,206.683 1055.239,205.592 1054.864,204.524C1054.489,203.457 1053.997,202.459 1053.388,201.531C1052.778,200.603 1052.028,199.86 1051.138,199.303C1050.247,198.746 1049.239,198.468 1048.114,198.468L1034.895,198.468L1034.895,215.733L1048.114,215.733C1050.27,215.733 1052.028,214.944 1053.388,213.366C1054.747,211.788 1055.427,209.931 1055.427,207.796ZM1078.49,202.366C1078.49,206.915 1078.021,210.628 1077.083,213.505C1076.146,216.383 1074.974,218.68 1073.568,220.397C1072.161,222.115 1070.661,223.368 1069.068,224.157C1067.474,224.946 1066.021,225.526 1064.708,225.897C1066.489,226.083 1068.341,226.547 1070.263,227.29C1072.185,228.032 1073.943,229.332 1075.537,231.188C1077.13,233.045 1078.443,235.574 1079.474,238.776C1080.505,241.979 1081.021,246.086 1081.021,251.099C1081.021,254.441 1080.318,257.597 1078.912,260.567C1077.505,263.537 1075.56,266.136 1073.076,268.364C1070.591,270.592 1067.708,272.332 1064.427,273.585C1061.146,274.839 1057.63,275.465 1053.88,275.465L1012.816,275.465L1012.816,178L1048.114,178C1053.27,178 1057.747,178.627 1061.544,179.88C1065.341,181.133 1068.505,182.873 1071.036,185.101C1073.568,187.329 1075.443,189.928 1076.662,192.898C1077.88,195.869 1078.49,199.025 1078.49,202.366Z" style="fill:rgb(19,40,78);fill-rule:nonzero;"/>
            <path d="M1093.678,265.162C1093.678,265.255 1094.357,264.396 1095.717,262.586C1097.076,260.776 1098.6,258.803 1100.287,256.668C1102.256,254.162 1104.506,251.331 1107.037,248.175C1109.569,249.939 1112.147,251.517 1114.772,252.909C1117.022,254.116 1119.459,255.183 1122.085,256.111C1124.71,257.04 1127.194,257.504 1129.538,257.504C1130.944,257.504 1132.374,257.295 1133.827,256.877C1135.28,256.459 1136.593,255.879 1137.765,255.137C1138.936,254.394 1139.897,253.512 1140.647,252.491C1141.397,251.47 1141.772,250.356 1141.772,249.15C1141.772,246.272 1140.132,243.743 1136.851,241.561C1133.569,239.38 1129.538,237.361 1124.756,235.504C1121.756,234.298 1118.639,232.789 1115.405,230.979C1112.17,229.169 1109.217,226.988 1106.545,224.435C1103.873,221.883 1101.693,218.935 1100.006,215.594C1098.318,212.252 1097.475,208.493 1097.475,204.316C1097.475,200.324 1098.154,196.518 1099.514,192.898C1100.873,189.278 1102.912,186.076 1105.631,183.291C1108.35,180.506 1111.725,178.302 1115.756,176.677C1119.788,175.053 1124.522,174.241 1129.96,174.241C1134.179,174.241 1138.022,174.751 1141.491,175.772C1144.96,176.793 1148.101,178 1150.913,179.392C1153.726,180.785 1156.163,182.247 1158.226,183.778C1160.289,185.31 1162.023,186.586 1163.429,187.607L1150.491,205.012C1150.21,204.826 1149.39,204.246 1148.03,203.271C1146.671,202.297 1145.007,201.276 1143.038,200.208C1141.069,199.141 1138.866,198.166 1136.429,197.284C1133.991,196.402 1131.46,195.961 1128.835,195.961C1126.303,195.961 1124.1,196.634 1122.225,197.98C1120.35,199.326 1119.413,200.928 1119.413,202.784C1119.413,205.383 1120.655,207.727 1123.139,209.815C1125.624,211.904 1129.678,214.062 1135.304,216.29C1138.022,217.404 1141.046,218.796 1144.374,220.467C1147.702,222.138 1150.796,224.226 1153.656,226.733C1156.515,229.239 1158.906,232.232 1160.828,235.713C1162.75,239.194 1163.711,243.302 1163.711,248.036C1163.711,251.656 1162.96,255.299 1161.46,258.966C1159.96,262.632 1157.781,265.974 1154.921,268.991C1152.062,272.007 1148.57,274.467 1144.444,276.37C1140.319,278.273 1135.679,279.225 1130.522,279.225C1125.928,279.225 1121.545,278.621 1117.373,277.414C1113.202,276.208 1109.451,274.792 1106.123,273.168C1102.795,271.543 1100.029,269.965 1097.826,268.434C1095.623,266.902 1094.24,265.811 1093.678,265.162Z" style="fill:rgb(19,40,78);fill-rule:nonzero;"/>
            <path d="M856.331,387.348L856.331,289.883L878.269,289.883L878.269,365.628L916.801,365.628L916.801,387.348L856.331,387.348Z" style="fill:rgb(19,40,78);fill-rule:nonzero;"/>
            <path d="M929.458,387.348L929.458,289.883L951.396,289.883L951.396,365.628L989.928,365.628L989.928,387.348L929.458,387.348Z" style="fill:rgb(19,40,78);fill-rule:nonzero;"/>
            <path d="M1015.752,338.616C1015.752,342.886 1016.549,346.877 1018.143,350.59C1019.737,354.303 1021.94,357.552 1024.752,360.337C1027.565,363.121 1030.846,365.303 1034.596,366.881C1038.346,368.459 1042.378,369.248 1046.69,369.248C1051.003,369.248 1055.034,368.459 1058.784,366.881C1062.534,365.303 1065.816,363.121 1068.628,360.337L1084.238,375.653C1079.363,380.479 1073.714,384.262 1067.292,387C1060.87,389.739 1054.003,391.108 1046.69,391.108C1039.378,391.108 1032.51,389.739 1026.088,387C1019.666,384.262 1014.041,380.503 1009.213,375.722C1004.385,370.942 1000.588,365.372 997.822,359.014C995.056,352.655 993.673,345.856 993.673,338.616C993.673,331.376 995.056,324.576 997.822,318.218C1000.588,311.859 1004.385,306.29 1009.213,301.509C1014.041,296.729 1019.666,292.97 1026.088,290.231C1032.51,287.493 1039.378,286.124 1046.69,286.124C1054.003,286.124 1060.87,287.516 1067.292,290.301C1073.714,293.086 1079.316,296.845 1084.097,301.579L1068.628,316.895C1065.816,314.203 1062.534,312.045 1058.784,310.421C1055.034,308.796 1051.003,307.984 1046.69,307.984C1042.378,307.984 1038.346,308.773 1034.596,310.351C1030.846,311.929 1027.565,314.11 1024.752,316.895C1021.94,319.68 1019.737,322.929 1018.143,326.642C1016.549,330.354 1015.752,334.346 1015.752,338.616Z" style="fill:rgb(19,40,78);fill-rule:nonzero;"/>
        </g>
    </g>
</svg>
