<?xml version="1.0" encoding="UTF-8" standalone="no"?>
<!DOCTYPE svg PUBLIC "-//W3C//DTD SVG 1.1//EN" "http://www.w3.org/Graphics/SVG/1.1/DTD/svg11.dtd">
<svg width="100%" height="100%" viewBox="0 0 618 126" version="1.1" xmlns="http://www.w3.org/2000/svg" xmlns:xlink="http://www.w3.org/1999/xlink" xml:space="preserve" xmlns:serif="http://www.serif.com/" style="fill-rule:evenodd;clip-rule:evenodd;stroke-linejoin:round;stroke-miterlimit:2;">
    <g transform="matrix(1.070421,0,0,1.070421,-74.050518,-289.97848)">
        <g transform="matrix(1.01,0,0,1,-2.297654,0)">
            <g transform="matrix(109.859155,0,0,109.859155,644.94487,350)">
            </g>
            <text x="229.765px" y="350px" style="font-family:'VisbyCF-Bold', 'Visby CF';font-weight:700;font-size:109.859px;fill:rgb(235,243,247);">brit<tspan x="410.16px " y="350px ">c</tspan>he<tspan x="596.717px " y="350px ">s</tspan></text>
        </g>
    </g>
    <g transform="matrix(-1.070421,0,0,1.070421,430.522823,-289.97848)">
        <g transform="matrix(1.01,0,0,1,-2.297654,0)">
            <g transform="matrix(109.859155,0,0,109.859155,404.880862,350)">
            </g>
            <text x="229.765px" y="350px" style="font-family:'VisbyCF-Bold', 'Visby CF';font-weight:700;font-size:109.859px;fill:rgb(161,206,0);">BIG</text>
        </g>
    </g>
    <g transform="matrix(1.250585,0,0,1.250585,-1349.136135,-2013.376983)">
        <g transform="matrix(0.905483,0,0,1,115.480574,0)">
            <g transform="matrix(26.760563,0,0,26.760563,1505.679911,1705)">
            </g>
            <text x="1221.799px" y="1705px" style="font-family:'VisbyCF-Medium', 'Visby CF';font-weight:500;font-size:26.761px;fill:rgb(235,243,247);">W<tspan x="1246.528px " y="1705px ">e</tspan>b Ap<tspan x="1319.584px " y="1705px ">p</tspan> De<tspan x="1374.439px 1388.753px " y="1705px 1705px ">ve</tspan>lo<tspan x="1425.627px " y="1705px ">p</tspan>men<tspan x="1496.849px " y="1705px ">t</tspan></text>
        </g>
    </g>
</svg>
