<?xml version="1.0" encoding="UTF-8" standalone="no"?>
<!DOCTYPE svg PUBLIC "-//W3C//DTD SVG 1.1//EN" "http://www.w3.org/Graphics/SVG/1.1/DTD/svg11.dtd">
<svg width="100%" height="100%" viewBox="0 0 618 126" version="1.1" xmlns="http://www.w3.org/2000/svg" xmlns:xlink="http://www.w3.org/1999/xlink" xml:space="preserve" xmlns:serif="http://www.serif.com/" style="fill-rule:evenodd;clip-rule:evenodd;stroke-linejoin:round;stroke-miterlimit:2;">
    <g transform="matrix(1,0,0,1,-1189.795164,-483.795727)">
        <g transform="matrix(1.070421,0,0,1.070421,1115.744645,193.817247)">
            <path d="M269.044,291.775C258.725,291.775 252.068,297.377 250.625,300.563L250.293,300.563L250.293,272L235.424,272L235.424,350L250.293,350L250.293,342.31L250.625,342.31C252.068,345.496 258.725,351.099 269.044,351.099C282.47,351.099 296.784,341.211 296.784,321.437C296.784,301.662 282.47,291.775 269.044,291.775ZM266.049,337.915C257.616,337.915 249.96,332.203 249.96,321.437C249.96,310.67 257.616,304.958 266.049,304.958C274.259,304.958 282.026,310.78 282.026,321.437C282.026,332.093 274.259,337.915 266.049,337.915Z" style="fill:rgb(19,40,78);"/>
            <path d="M338.282,291.775C327.852,291.775 322.193,298.915 320.196,307.704L320.196,292.873L305.328,292.873L305.328,350L320.196,350L320.196,325.062C320.196,313.637 327.186,305.946 338.393,305.946C339.724,305.946 340.834,306.056 342.166,306.276L342.166,292.214C340.834,291.885 339.614,291.775 338.282,291.775Z" style="fill:rgb(19,40,78);"/>
            <path d="M350.598,284.963L365.467,284.963L365.467,272L350.598,272L350.598,284.963ZM350.598,350L365.467,350L365.467,292.873L350.598,292.873L350.598,350Z" style="fill:rgb(19,40,78);"/>
            <path d="M403.747,337.586C398.865,337.586 397.201,334.73 397.201,331.763L397.201,304.628L409.073,304.628L409.073,292.873L397.201,292.873L397.201,278.262L382.221,278.262L382.221,292.873L374.01,292.873L374.01,304.628L382.221,304.628L382.221,334.18C382.221,345.935 389.323,350.659 399.087,350.659C402.748,350.659 406.965,350 409.184,348.023L409.184,336.707C407.076,337.366 405.079,337.586 403.747,337.586Z" style="fill:rgb(19,40,78);"/>
            <path d="M445.251,351.099C455.459,351.099 464.557,346.265 470.105,337.037L459.231,330.115C456.236,334.62 451.353,337.806 445.362,337.806C437.04,337.806 429.495,331.654 429.495,321.437C429.495,311.22 437.04,305.068 445.362,305.068C451.353,305.068 456.236,308.254 459.231,312.758L470.105,305.837C464.557,296.499 455.459,291.775 445.251,291.775C430.05,291.775 414.848,302.101 414.848,321.437C414.848,340.772 430.05,351.099 445.251,351.099Z" style="fill:rgb(19,40,78);"/>
            <path d="M511.16,291.775C502.505,291.775 496.735,295.62 493.517,300.673L493.517,272L478.649,272L478.649,350L493.517,350L493.517,318.8C493.517,310.451 498.178,304.958 505.834,304.958C513.601,304.958 518.15,310.451 518.15,318.8L518.15,350L533.018,350L533.018,316.383C533.018,299.025 523.032,291.775 511.16,291.775Z" style="fill:rgb(19,40,78);"/>
            <path d="M570.744,291.775C555.987,291.775 541.562,302.211 541.562,321.437C541.562,340.442 555.765,351.099 571.632,351.099C581.84,351.099 590.162,346.924 594.933,340.992L588.164,333.851C583.948,337.476 578.955,339.014 573.296,339.014C564.641,339.014 557.762,334.949 555.654,327.149L598.816,327.149C602.034,301.992 585.39,291.775 570.744,291.775ZM570.855,304.189C577.845,304.189 584.725,308.254 585.612,316.383L555.432,316.383C557.318,308.144 563.976,304.189 570.855,304.189Z" style="fill:rgb(19,40,78);"/>
            <path d="M624.353,351.099C636.447,351.099 646.323,344.946 646.323,333.521C646.323,323.414 638.556,319.239 631.454,316.713L625.019,314.296C620.47,312.758 619.027,310.67 619.027,308.254C619.027,305.507 621.357,303.31 625.241,303.31C628.348,303.31 631.343,304.738 632.897,309.352L644.547,306.386C642.661,297.597 635.005,291.775 624.575,291.775C613.701,291.775 604.603,297.927 604.603,308.144C604.603,315.065 608.597,321.107 618.139,324.513L625.241,327.149C629.79,328.797 631.565,330.775 631.565,333.521C631.565,337.586 627.904,339.454 624.131,339.454C618.472,339.454 615.698,335.608 614.589,331.873L602.716,335.059C604.492,345.606 612.924,351.099 624.353,351.099Z" style="fill:rgb(19,40,78);"/>
        </g>
        <g transform="matrix(-1.070421,0,0,1.070421,1620.317987,193.817247)">
            <path d="M275.591,306.496C280.917,304.189 285.91,298.806 285.91,290.786C285.91,280.239 277.588,272 264.273,272L235.424,272L235.424,350L263.607,350C281.472,350 290.903,340.662 290.903,327.039C290.903,315.175 283.58,308.583 275.591,306.496ZM261.055,285.183C267.824,285.183 271.264,288.259 271.264,293.642C271.264,298.696 267.935,302.321 261.277,302.321L250.625,302.321L250.625,285.183L261.055,285.183ZM262.72,336.817L250.625,336.817L250.625,313.966L262.498,313.966C271.596,313.966 275.813,318.69 275.813,325.501C275.813,332.423 271.596,336.817 262.72,336.817Z" style="fill:rgb(161,206,0);"/>
            <rect x="299.891" y="272" width="15.201" height="78" style="fill:rgb(161,206,0);"/>
            <path d="M401.75,308.034L368.13,308.034L368.13,320.668L386.992,320.668C384.662,332.752 375.897,337.256 366.243,337.256C351.93,337.256 340.723,326.93 340.723,311C340.723,294.961 352.152,285.183 366.243,285.183C374.232,285.183 381.667,288.149 386.882,295.4L397.866,287.82C389.545,274.637 376.562,270.901 366.021,270.901C343.83,270.901 325.189,286.721 325.189,311C325.189,335.279 343.719,351.099 365.578,351.099C387.325,351.099 405.301,335.059 401.75,308.034Z" style="fill:rgb(161,206,0);"/>
        </g>
        <g transform="matrix(1.250585,0,0,1.250585,-159.340972,-1529.581256)">
            <path d="M1227.735,1705L1229.407,1705L1233.866,1689.987L1238.349,1705L1240.021,1705L1245.254,1686L1243.049,1686L1239.051,1700.932L1234.714,1686L1233.042,1686L1228.705,1700.932L1224.706,1686L1222.501,1686L1227.735,1705Z" style="fill:rgb(19,40,78);"/>
            <path d="M1251.291,1690.817C1248.116,1690.817 1245.015,1693.359 1245.015,1698.042C1245.015,1702.672 1248.092,1705.268 1251.485,1705.268C1253.52,1705.268 1255.337,1704.358 1256.476,1702.806L1255.459,1701.655C1254.538,1702.752 1253.181,1703.341 1251.703,1703.341C1249.28,1703.341 1247.268,1701.789 1246.953,1698.872L1257.324,1698.872C1257.833,1693.359 1254.489,1690.817 1251.291,1690.817ZM1251.315,1692.77C1253.423,1692.77 1255.386,1694.296 1255.531,1697.159L1246.953,1697.159C1247.268,1694.242 1249.231,1692.77 1251.315,1692.77Z" style="fill:rgb(19,40,78);"/>
            <path d="M1266.484,1690.817C1264.133,1690.817 1262.364,1692.235 1261.759,1693.707L1261.686,1693.707L1261.686,1686L1259.651,1686L1259.651,1705L1261.686,1705L1261.686,1702.377L1261.759,1702.377C1262.364,1703.849 1264.133,1705.268 1266.484,1705.268C1269.561,1705.268 1272.663,1702.806 1272.663,1698.042C1272.663,1693.279 1269.561,1690.817 1266.484,1690.817ZM1266.145,1703.207C1263.891,1703.207 1261.637,1701.468 1261.637,1698.042C1261.637,1694.617 1263.891,1692.877 1266.145,1692.877C1268.398,1692.877 1270.627,1694.59 1270.627,1698.042C1270.627,1701.494 1268.398,1703.207 1266.145,1703.207Z" style="fill:rgb(19,40,78);"/>
            <path d="M1292.629,1705L1294.883,1705L1288.05,1686L1285.966,1686L1279.132,1705L1281.386,1705L1282.937,1700.611L1291.078,1700.611L1292.629,1705ZM1283.688,1698.47L1287.008,1688.97L1290.327,1698.47L1283.688,1698.47Z" style="fill:rgb(19,40,78);"/>
            <path d="M1303.606,1690.817C1301.256,1690.817 1299.487,1692.235 1298.881,1693.707L1298.808,1693.707L1298.808,1691.085L1296.773,1691.085L1296.773,1710.085L1298.808,1710.085L1298.808,1702.377L1298.881,1702.377C1299.487,1703.849 1301.256,1705.268 1303.606,1705.268C1306.683,1705.268 1309.785,1702.806 1309.785,1698.042C1309.785,1693.279 1306.683,1690.817 1303.606,1690.817ZM1303.267,1703.207C1301.013,1703.207 1298.76,1701.468 1298.76,1698.042C1298.76,1694.617 1301.013,1692.877 1303.267,1692.877C1305.52,1692.877 1307.75,1694.59 1307.75,1698.042C1307.75,1701.494 1305.52,1703.207 1303.267,1703.207Z" style="fill:rgb(19,40,78);"/>
            <path d="M1318.604,1690.817C1316.254,1690.817 1314.485,1692.235 1313.879,1693.707L1313.806,1693.707L1313.806,1691.085L1311.771,1691.085L1311.771,1710.085L1313.806,1710.085L1313.806,1702.377L1313.879,1702.377C1314.485,1703.849 1316.254,1705.268 1318.604,1705.268C1321.681,1705.268 1324.783,1702.806 1324.783,1698.042C1324.783,1693.279 1321.681,1690.817 1318.604,1690.817ZM1318.265,1703.207C1316.011,1703.207 1313.758,1701.468 1313.758,1698.042C1313.758,1694.617 1316.011,1692.877 1318.265,1692.877C1320.518,1692.877 1322.748,1694.59 1322.748,1698.042C1322.748,1701.494 1320.518,1703.207 1318.265,1703.207Z" style="fill:rgb(19,40,78);"/>
            <path d="M1332.222,1705L1337.383,1705C1342.472,1705 1345.84,1701.146 1345.84,1695.5C1345.84,1689.854 1342.472,1686 1337.383,1686L1332.222,1686L1332.222,1705ZM1334.306,1702.806L1334.306,1688.194L1337.311,1688.194C1341.406,1688.194 1343.683,1691.111 1343.683,1695.5C1343.683,1699.889 1341.406,1702.806 1337.311,1702.806L1334.306,1702.806Z" style="fill:rgb(19,40,78);"/>
            <path d="M1353.885,1690.817C1350.71,1690.817 1347.609,1693.359 1347.609,1698.042C1347.609,1702.672 1350.686,1705.268 1354.079,1705.268C1356.114,1705.268 1357.931,1704.358 1359.07,1702.806L1358.053,1701.655C1357.132,1702.752 1355.775,1703.341 1354.297,1703.341C1351.874,1703.341 1349.862,1701.789 1349.547,1698.872L1359.918,1698.872C1360.427,1693.359 1357.083,1690.817 1353.885,1690.817ZM1353.909,1692.77C1356.017,1692.77 1357.98,1694.296 1358.125,1697.159L1349.547,1697.159C1349.862,1694.242 1351.825,1692.77 1353.909,1692.77Z" style="fill:rgb(19,40,78);"/>
            <path d="M1365.949,1705L1367.839,1705L1373.194,1691.085L1371.086,1691.085L1366.894,1702.217L1362.702,1691.085L1360.594,1691.085L1365.949,1705Z" style="fill:rgb(19,40,78);"/>
            <path d="M1380.072,1690.817C1376.898,1690.817 1373.796,1693.359 1373.796,1698.042C1373.796,1702.672 1376.874,1705.268 1380.266,1705.268C1382.302,1705.268 1384.119,1704.358 1385.258,1702.806L1384.24,1701.655C1383.319,1702.752 1381.962,1703.341 1380.484,1703.341C1378.061,1703.341 1376.05,1701.789 1375.735,1698.872L1386.106,1698.872C1386.615,1693.359 1383.271,1690.817 1380.072,1690.817ZM1380.097,1692.77C1382.205,1692.77 1384.167,1694.296 1384.313,1697.159L1375.735,1697.159C1376.05,1694.242 1378.013,1692.77 1380.097,1692.77Z" style="fill:rgb(19,40,78);"/>
            <rect x="1388.432" y="1686" width="2.035" height="19" style="fill:rgb(19,40,78);"/>
            <path d="M1399.263,1705.268C1402.535,1705.268 1405.806,1702.699 1405.806,1698.042C1405.806,1693.386 1402.535,1690.817 1399.263,1690.817C1395.992,1690.817 1392.721,1693.386 1392.721,1698.042C1392.721,1702.699 1395.992,1705.268 1399.263,1705.268ZM1399.263,1703.207C1396.937,1703.207 1394.756,1701.334 1394.756,1698.042C1394.756,1694.751 1396.937,1692.877 1399.263,1692.877C1401.59,1692.877 1403.771,1694.751 1403.771,1698.042C1403.771,1701.334 1401.59,1703.207 1399.263,1703.207Z" style="fill:rgb(19,40,78);"/>
            <path d="M1414.625,1690.817C1412.275,1690.817 1410.506,1692.235 1409.9,1693.707L1409.827,1693.707L1409.827,1691.085L1407.792,1691.085L1407.792,1710.085L1409.827,1710.085L1409.827,1702.377L1409.9,1702.377C1410.506,1703.849 1412.275,1705.268 1414.625,1705.268C1417.702,1705.268 1420.804,1702.806 1420.804,1698.042C1420.804,1693.279 1417.702,1690.817 1414.625,1690.817ZM1414.286,1703.207C1412.032,1703.207 1409.779,1701.468 1409.779,1698.042C1409.779,1694.617 1412.032,1692.877 1414.286,1692.877C1416.539,1692.877 1418.769,1694.59 1418.769,1698.042C1418.769,1701.494 1416.539,1703.207 1414.286,1703.207Z" style="fill:rgb(19,40,78);"/>
            <path d="M1437.209,1690.817C1434.882,1690.817 1433.525,1692.208 1432.92,1693.627C1432.168,1691.7 1430.715,1690.817 1428.946,1690.817C1426.935,1690.817 1425.699,1691.968 1425.093,1693.252L1425.093,1691.085L1423.058,1691.085L1423.058,1705L1425.093,1705L1425.093,1696.972C1425.093,1694.43 1426.304,1692.877 1428.34,1692.877C1430.351,1692.877 1431.393,1694.43 1431.393,1696.972L1431.393,1705L1433.428,1705L1433.428,1696.972C1433.428,1694.43 1434.64,1692.877 1436.675,1692.877C1438.687,1692.877 1439.729,1694.43 1439.729,1696.972L1439.729,1705L1441.764,1705L1441.764,1696.811C1441.764,1692.663 1439.826,1690.817 1437.209,1690.817Z" style="fill:rgb(19,40,78);"/>
            <path d="M1450.293,1690.817C1447.119,1690.817 1444.018,1693.359 1444.018,1698.042C1444.018,1702.672 1447.095,1705.268 1450.487,1705.268C1452.523,1705.268 1454.34,1704.358 1455.479,1702.806L1454.461,1701.655C1453.54,1702.752 1452.183,1703.341 1450.705,1703.341C1448.282,1703.341 1446.271,1701.789 1445.956,1698.872L1456.327,1698.872C1456.836,1693.359 1453.492,1690.817 1450.293,1690.817ZM1450.318,1692.77C1452.426,1692.77 1454.389,1694.296 1454.534,1697.159L1445.956,1697.159C1446.271,1694.242 1448.234,1692.77 1450.318,1692.77Z" style="fill:rgb(19,40,78);"/>
            <path d="M1464.905,1690.817C1462.724,1690.817 1461.343,1692.021 1460.689,1693.359L1460.689,1691.085L1458.653,1691.085L1458.653,1705L1460.689,1705L1460.689,1697.132C1460.689,1694.323 1462.264,1692.877 1464.275,1692.877C1466.286,1692.877 1467.788,1694.323 1467.788,1697.132L1467.788,1705L1469.824,1705L1469.824,1696.811C1469.824,1692.637 1467.546,1690.817 1464.905,1690.817Z" style="fill:rgb(19,40,78);"/>
            <path d="M1477.903,1692.931L1477.903,1691.085L1475.408,1691.085L1475.408,1687.525L1473.372,1687.525L1473.372,1691.085L1471.676,1691.085L1471.676,1692.931L1473.372,1692.931L1473.372,1702.163C1473.372,1704.251 1474.511,1705.161 1476.183,1705.161C1476.764,1705.161 1477.443,1705.054 1477.879,1704.679L1477.879,1702.886C1477.419,1703.073 1477.031,1703.127 1476.74,1703.127C1475.795,1703.127 1475.408,1702.592 1475.408,1701.735L1475.408,1692.931L1477.903,1692.931Z" style="fill:rgb(19,40,78);"/>
        </g>
    </g>
</svg>
