<?xml version="1.0" encoding="UTF-8" standalone="no"?>
<!DOCTYPE svg PUBLIC "-//W3C//DTD SVG 1.1//EN" "http://www.w3.org/Graphics/SVG/1.1/DTD/svg11.dtd">
<svg width="100%" height="100%" viewBox="0 0 125 85" version="1.1" xmlns="http://www.w3.org/2000/svg" xmlns:xlink="http://www.w3.org/1999/xlink" xml:space="preserve" xmlns:serif="http://www.serif.com/" style="fill-rule:evenodd;clip-rule:evenodd;stroke-linejoin:round;stroke-miterlimit:2;">
    <g transform="matrix(1.070421,0,0,1.070421,-193.18465,-291.154435)">
        <path d="M269.044,291.775C258.725,291.775 252.068,297.377 250.625,300.563L250.293,300.563L250.293,272L235.424,272L235.424,350L250.293,350L250.293,342.31L250.625,342.31C252.068,345.496 258.725,351.099 269.044,351.099C282.47,351.099 296.784,341.211 296.784,321.437C296.784,301.662 282.47,291.775 269.044,291.775ZM266.049,337.915C257.616,337.915 249.96,332.203 249.96,321.437C249.96,310.67 257.616,304.958 266.049,304.958C274.259,304.958 282.026,310.78 282.026,321.437C282.026,332.093 274.259,337.915 266.049,337.915Z" style="fill:rgb(235,243,247);fill-rule:nonzero;"/>
    </g>
    <g transform="matrix(-1.070421,0,0,1.070421,311.388691,-291.154435)">
        <path d="M275.591,306.496C280.917,304.189 285.91,298.806 285.91,290.786C285.91,280.239 277.588,272 264.273,272L235.424,272L235.424,350L263.607,350C281.472,350 290.903,340.662 290.903,327.039C290.903,315.175 283.58,308.583 275.591,306.496ZM261.055,285.183C267.824,285.183 271.264,288.259 271.264,293.642C271.264,298.696 267.935,302.321 261.277,302.321L250.625,302.321L250.625,285.183L261.055,285.183ZM262.72,336.817L250.625,336.817L250.625,313.966L262.498,313.966C271.596,313.966 275.813,318.69 275.813,325.501C275.813,332.423 271.596,336.817 262.72,336.817Z" style="fill:rgb(161,206,0);fill-rule:nonzero;"/>
    </g>
</svg>
